<svg width="46" height="46" viewBox="0 0 46 46" fill="none" xmlns="http://www.w3.org/2000/svg">
<path d="M15.5689 30.2828C15.2109 29.9248 15.1811 29.3629 15.4794 28.971L15.5689 28.8686L27.9995 16.4391L19.0366 16.4575C18.4843 16.4587 18.0357 16.0119 18.0345 15.4596C18.0334 14.9576 18.4025 14.5411 18.8846 14.4686L19.0323 14.4575L30.4158 14.433C30.4886 14.4328 30.5596 14.4404 30.628 14.4551C30.6481 14.46 30.6686 14.465 30.689 14.4707C30.7069 14.4752 30.7246 14.4807 30.7421 14.4867C30.7671 14.4957 30.7926 14.5056 30.8176 14.5165C30.8373 14.5246 30.8556 14.5333 30.8736 14.5425C30.8956 14.5542 30.9187 14.5671 30.9413 14.581C30.9573 14.5905 30.9721 14.6002 30.9867 14.6103C31.0081 14.6255 31.0297 14.6418 31.0508 14.659C31.0671 14.672 31.0826 14.6855 31.0977 14.6995C31.1066 14.7081 31.116 14.7172 31.1252 14.7264L31.1523 14.7542C31.1656 14.7686 31.1785 14.7834 31.191 14.7986L31.1252 14.7264C31.1699 14.771 31.2094 14.8188 31.2438 14.8691C31.2521 14.881 31.2603 14.8936 31.2682 14.9063C31.2845 14.9326 31.2992 14.9589 31.3126 14.9857C31.3193 14.999 31.3261 15.0135 31.3326 15.0281C31.3456 15.0577 31.3569 15.0869 31.3668 15.1166C31.3715 15.1305 31.3761 15.1453 31.3803 15.1603C31.3872 15.1849 31.393 15.2089 31.398 15.2331C31.4015 15.2502 31.4047 15.2684 31.4074 15.2868L31.4094 15.3011C31.4152 15.345 31.4181 15.3893 31.4181 15.4335L31.418 15.435L31.3944 26.8194C31.3932 27.3717 30.9446 27.8185 30.3923 27.8174C29.8902 27.8163 29.4753 27.4455 29.4049 26.9631L29.3944 26.8153L29.4118 17.8552L16.9831 30.2828C16.5926 30.6733 15.9594 30.6733 15.5689 30.2828Z" fill="#111111"/>
</svg>
