<svg width="15" height="18" viewBox="0 0 15 18" fill="none" xmlns="http://www.w3.org/2000/svg">
<path fill-rule="evenodd" clip-rule="evenodd" d="M9.64508 0.666016C9.68087 0.666016 9.71597 0.669029 9.75012 0.674816L9.86417 0.675516C10.0342 0.675516 10.1967 0.744682 10.315 0.867182L14.5358 5.26468C14.6475 5.38052 14.7101 5.53635 14.7101 5.69718V13.3355C14.725 15.4263 13.0967 17.1347 11.0025 17.2197L4.32 17.2205H4.22917C2.18755 17.1744 0.550135 15.5232 0.500252 13.5015L0.5 4.40802C0.548333 2.34052 2.25583 0.675516 4.30833 0.675516L9.54005 0.674816C9.5742 0.669029 9.60929 0.666016 9.64508 0.666016ZM9.02 1.92518L4.31 1.92552C2.92917 1.92552 1.7825 3.04385 1.75 4.42302V13.3355C1.71917 14.763 2.84417 15.9389 4.2575 15.9705H10.9775C12.3683 15.913 13.47 14.7572 13.4601 13.3405L13.46 6.48518L11.7851 6.48602C10.2601 6.48185 9.02008 5.23852 9.02008 3.71518L9.02 1.92518ZM9.48942 11.1728C9.83442 11.1728 10.1144 11.4528 10.1144 11.7978C10.1144 12.1428 9.83442 12.4228 9.48942 12.4228H4.98942C4.64442 12.4228 4.36442 12.1428 4.36442 11.7978C4.36442 11.4528 4.64442 11.1728 4.98942 11.1728H9.48942ZM7.78533 8.0461C8.13033 8.0461 8.41033 8.3261 8.41033 8.6711C8.41033 9.0161 8.13033 9.2961 7.78533 9.2961H4.98867C4.64367 9.2961 4.36367 9.0161 4.36367 8.6711C4.36367 8.3261 4.64367 8.0461 4.98867 8.0461H7.78533ZM10.27 2.62602L10.2701 3.71518C10.2701 4.55185 10.9509 5.23352 11.7867 5.23602L12.775 5.23518L10.27 2.62602Z" fill="#111111"/>
</svg>
