<svg width="17" height="17" viewBox="0 0 17 17" fill="none" xmlns="http://www.w3.org/2000/svg">
<path fill-rule="evenodd" clip-rule="evenodd" d="M4.20964 9.83268C7.60047 9.83268 7.7513 10.9827 7.7513 13.3743C7.7513 14.5727 7.7513 15.4252 7.24797 16.0493C6.6688 16.7685 5.61464 16.916 4.20964 16.916C2.80464 16.916 1.75047 16.7685 1.1713 16.0493C0.667969 15.4252 0.667969 14.5735 0.667969 13.3952L1.29297 13.3743H0.667969C0.667969 10.9827 0.818802 9.83268 4.20964 9.83268ZM13.3763 9.83268C16.7671 9.83268 16.918 10.9827 16.918 13.3743C16.918 14.5727 16.918 15.4252 16.4146 16.0493C15.8355 16.7685 14.7813 16.916 13.3763 16.916C11.9713 16.916 10.9171 16.7685 10.338 16.0493C9.83464 15.4252 9.83463 14.5735 9.83463 13.3952L10.4596 13.3743H9.83463C9.83463 10.9827 9.98547 9.83268 13.3763 9.83268ZM4.38144 11.0831L4.20964 11.0827C2.03549 11.0827 1.924 11.2387 1.91828 13.0636L1.91863 13.7745C1.92258 14.5003 1.95023 15.0246 2.1438 15.266C2.36464 15.5393 3.02047 15.666 4.20964 15.666C5.3988 15.666 6.05464 15.5385 6.27547 15.2652C6.5013 14.9843 6.5013 14.3177 6.5013 13.3943C6.5013 11.3108 6.5013 11.0929 4.38144 11.0831ZM13.5481 11.0831L13.3763 11.0827C11.2022 11.0827 11.0907 11.2387 11.0849 13.0636L11.0853 13.7745C11.0892 14.5003 11.1169 15.0246 11.3105 15.266C11.5313 15.5393 12.1871 15.666 13.3763 15.666C14.5655 15.666 15.2213 15.5385 15.4421 15.2652C15.668 14.9843 15.668 14.3177 15.668 13.3943C15.668 11.3108 15.668 11.0929 13.5481 11.0831ZM4.20964 0.666016C7.60047 0.666016 7.7513 1.81602 7.7513 4.20768C7.7513 5.40602 7.7513 6.25852 7.24797 6.88268C6.6688 7.60185 5.61464 7.74935 4.20964 7.74935C2.80464 7.74935 1.75047 7.60185 1.1713 6.88268C0.667969 6.25852 0.667969 5.40685 0.667969 4.22852L1.29297 4.20768H0.667969C0.667969 1.81602 0.818802 0.666016 4.20964 0.666016ZM13.3763 0.666016C16.7671 0.666016 16.918 1.81602 16.918 4.20768C16.918 5.40602 16.918 6.25852 16.4146 6.88268C15.8355 7.60185 14.7813 7.74935 13.3763 7.74935C11.9713 7.74935 10.9171 7.60185 10.338 6.88268C9.83464 6.25852 9.83463 5.40685 9.83463 4.22852L10.4596 4.20768H9.83463C9.83463 1.81602 9.98547 0.666016 13.3763 0.666016ZM4.38144 1.91639L4.20964 1.91602C2.03549 1.91602 1.924 2.07203 1.91828 3.89689L1.91863 4.60783C1.92258 5.33363 1.95023 5.85792 2.1438 6.09935C2.36464 6.37268 3.02047 6.49935 4.20964 6.49935C5.3988 6.49935 6.05464 6.37185 6.27547 6.09852C6.5013 5.81768 6.5013 5.15102 6.5013 4.22768C6.5013 2.14418 6.5013 1.9262 4.38144 1.91639ZM13.5481 1.91639L13.3763 1.91602C11.2022 1.91602 11.0907 2.07203 11.0849 3.89689L11.0853 4.60783C11.0892 5.33363 11.1169 5.85792 11.3105 6.09935C11.5313 6.37268 12.1871 6.49935 13.3763 6.49935C14.5655 6.49935 15.2213 6.37185 15.4421 6.09852C15.668 5.81768 15.668 5.15102 15.668 4.22768C15.668 2.14418 15.668 1.9262 13.5481 1.91639Z" fill="#111111"/>
</svg>
