<svg width="18" height="18" viewBox="0 0 18 18" fill="none" xmlns="http://www.w3.org/2000/svg">
<path fill-rule="evenodd" clip-rule="evenodd" d="M7.23214 11.046L7.33139 11.046L7.55136 11.0466C9.41965 11.0566 13.7963 11.2265 13.7963 14.1135C13.7963 16.7903 10.2018 17.148 7.40581 17.1614L6.91291 17.1612C5.04462 17.1512 0.667969 16.9815 0.667969 14.0952C0.667969 11.3618 4.4138 11.046 7.23214 11.046ZM7.23214 12.296C3.7063 12.296 1.91797 12.9018 1.91797 14.0952C1.91797 15.3002 3.7063 15.9118 7.23214 15.9118C10.758 15.9118 12.5463 15.306 12.5463 14.1135C12.5463 12.9068 10.758 12.296 7.23214 12.296ZM15.0047 5.59827C15.3497 5.59827 15.6297 5.87827 15.6297 6.22327L15.6296 7.26852L16.7096 7.26918C17.0546 7.26918 17.3346 7.54918 17.3346 7.89418C17.3346 8.23918 17.0546 8.51918 16.7096 8.51918L15.6296 8.51852L15.6297 9.56577C15.6297 9.91077 15.3497 10.1908 15.0047 10.1908C14.6597 10.1908 14.3797 9.91077 14.3797 9.56577L14.3796 8.51852L13.3013 8.51918C12.9563 8.51918 12.6763 8.23918 12.6763 7.89418C12.6763 7.54918 12.9563 7.26918 13.3013 7.26918L14.3796 7.26852L14.3797 6.22327C14.3797 5.87827 14.6597 5.59827 15.0047 5.59827ZM7.23214 0.666016C9.6763 0.666016 11.6638 2.65435 11.6638 5.09768C11.6638 7.54102 9.6763 9.52935 7.23214 9.52935H7.2063C6.0238 9.52518 4.91547 9.06102 4.08464 8.22435C3.25297 7.38685 2.79714 6.27518 2.80127 5.09518C2.80127 2.65435 4.7888 0.666016 7.23214 0.666016ZM7.23214 1.91602C5.4788 1.91602 4.05128 3.34352 4.05128 5.09768C4.04797 5.94685 4.37464 6.74268 4.97047 7.34352C5.56714 7.94352 6.36214 8.27602 7.2088 8.27935L7.23214 8.89685V8.27935C8.9863 8.27935 10.4138 6.85185 10.4138 5.09768C10.4138 3.34352 8.9863 1.91602 7.23214 1.91602Z" fill="#111111"/>
</svg>
